<?xml version="1.0" encoding="utf-8"?>
<!-- Generator: Adobe Illustrator 16.0.0, SVG Export Plug-In . SVG Version: 6.00 Build 0)  -->
<!DOCTYPE svg PUBLIC "-//W3C//DTD SVG 1.1//EN" "http://www.w3.org/Graphics/SVG/1.1/DTD/svg11.dtd">
<svg version="1.1" id="Layer_1" xmlns="http://www.w3.org/2000/svg" xmlns:xlink="http://www.w3.org/1999/xlink" x="0px" y="0px"
	 width="274px" height="77.1px" viewBox="0 0 274 77.1" style="enable-background:new 0 0 274 77.1;" xml:space="preserve">
<g style="opacity:0.9;">
	<path style="fill:#FFFFFF;" d="M38.2,61.7c-1.5,2.2-3.4,3.8-5.8,4.9c-2.4,1.1-5.4,1.7-9.1,1.7c-6.2,0-10.9-1.7-14-5.1
		s-4.8-8.4-4.8-15c0-6.5,1.5-11.5,4.6-15.1c3.1-3.6,7.7-5.4,13.8-5.4c3.3,0,6.2,0.5,8.8,1.6c2.6,1.1,4.5,2.7,5.9,5l-7,5
		c-0.9-1.1-1.9-2-3-2.5c-1.1-0.5-2.6-0.8-4.4-0.8c-3.2,0-5.5,1-6.9,3c-1.4,2-2,5-2,9.2c0,4.1,0.7,7.2,2.1,9.1s3.8,2.9,7.2,2.9
		c1.5,0,2.8-0.2,4-0.6c1.2-0.4,2.4-1.3,3.5-2.7L38.2,61.7z"/>
	<path style="fill:#FFFFFF;" d="M42.6,67.2V12.7H52v54.4H42.6z"/>
	<path style="fill:#FFFFFF;" d="M94.9,48.1c0,6.4-1.5,11.3-4.4,14.9c-2.9,3.5-7.6,5.3-13.9,5.3c-12.3,0-18.4-6.7-18.4-20.2
		c0-6.5,1.5-11.5,4.4-15c2.9-3.5,7.6-5.3,14-5.3c6.3,0,11,1.8,13.9,5.3C93.4,36.6,94.9,41.6,94.9,48.1z M85.1,48.1
		c0-4.2-0.7-7.3-2-9.2c-1.3-1.9-3.5-2.9-6.6-2.9c-3.1,0-5.3,1-6.7,3c-1.4,2-2,5-2,9.2c0,4.1,0.7,7.1,2,9c1.4,1.9,3.6,2.9,6.7,2.9
		c3,0,5.2-1,6.6-2.9C84.5,55.2,85.1,52.2,85.1,48.1z"/>
	<path style="fill:#FFFFFF;" d="M130,56.2c0,2.5-0.6,4.7-1.9,6.5s-3.1,3.2-5.4,4.1c-2.4,1-5,1.4-8.1,1.4c-8,0-13.5-2.2-16.4-6.7
		l7-4.9c1.1,1.6,2.5,2.6,4,3.1c1.5,0.5,3.1,0.8,4.8,0.8c4.5,0,6.7-1.3,6.7-3.9c0-1.1-0.6-2-1.9-2.7s-3.3-1.3-6-1.9
		c-5.1-1.1-8.7-2.7-10.7-4.8c-2.1-2-3.1-4.7-3.1-8c0-3.4,1.3-6.2,3.9-8.4c2.6-2.2,6.4-3.3,11.5-3.3c3.4,0,6.5,0.5,9.1,1.6
		s4.6,2.7,6,4.9l-7.1,5c-1.7-2.6-4.4-3.9-8.2-3.9c-1.9,0-3.4,0.3-4.4,1s-1.5,1.5-1.5,2.6c0,1,0.5,1.8,1.4,2.4
		c0.9,0.6,2.7,1.2,5.3,1.9c4.4,1.1,7.5,2.1,9.3,3.2c1.9,1.1,3.3,2.4,4.2,3.9C129.5,52,130,53.9,130,56.2z"/>
	<path style="fill:#FFFFFF;" d="M143.6,50.4c0.2,3.4,1,5.9,2.5,7.3c1.5,1.5,3.8,2.2,7,2.2c1.9,0,3.5-0.2,4.9-0.7
		c1.4-0.5,2.6-1.4,3.7-2.7l7,5c-1.5,2.2-3.5,3.9-6,5c-2.4,1.1-5.8,1.6-10,1.6c-6.3,0-11-1.7-14.1-5c-3.1-3.3-4.7-8.3-4.7-15
		c0-13.7,6.1-20.6,18.4-20.6c5.5,0,9.6,1.5,12.5,4.6c2.9,3.1,4.3,7.6,4.3,13.5v4.6H143.6z M159.7,43.9c0-5.8-2.5-8.7-7.6-8.7
		c-1.7,0-3.1,0.3-4.1,0.9c-1.1,0.6-1.9,1.4-2.6,2.6c-0.6,1.1-1.2,2.9-1.5,5.3H159.7z"/>
	<path style="fill:#FFFFFF;" d="M200.4,67.2v-3.7c-1.8,1.5-3.6,2.7-5.6,3.5c-1.9,0.9-4.2,1.3-6.7,1.3c-4.8,0-8.5-1.7-11.1-5.2
		c-2.6-3.5-3.8-8.4-3.8-14.8c0-6.5,1.4-11.6,4.2-15.2c2.8-3.6,6.8-5.4,11.9-5.4c1.8,0,3.7,0.4,5.6,1.1c1.9,0.7,3.5,1.7,4.7,2.8V12.7
		h9.4v54.4H200.4z M199.6,39.4c-1-0.9-2.2-1.7-3.7-2.4s-3-1-4.5-1c-2.5,0-4.6,1.1-6.1,3.3s-2.3,5.1-2.3,8.9c0,3.7,0.6,6.6,1.9,8.7
		c1.3,2.1,3.2,3.1,5.8,3.1c1.6,0,3.1-0.4,4.8-1.1c1.6-0.7,3-1.6,4.1-2.7V39.4z"/>
</g>
<path style="fill:#11AAAA;" d="M250.8,3.7c-14.8,0-29.6,15.9-33.1,35.6c-3.3,18.8,5,34.3,18.7,35.5l6.4-43.3l-9.2,6.8l-5.1-7
	l16.3-11.8h10L247,73c11.5-4.7,21.6-18,24.4-33.8C274.8,19.6,265.6,3.7,250.8,3.7z"/>
</svg>
